<svg width="12" height="14" viewBox="0 0 12 14" fill="none" xmlns="http://www.w3.org/2000/svg">
<path fill-rule="evenodd" clip-rule="evenodd" d="M7.48847 2.51772C7.48851 2.02584 7.66078 1.54951 7.97537 1.1714C8.28997 0.793282 8.72702 0.537254 9.21068 0.44775C9.69435 0.358246 10.1941 0.440917 10.6232 0.681413C11.0522 0.92191 11.3835 1.30505 11.5596 1.76433C11.7357 2.22362 11.7454 2.73005 11.587 3.19573C11.4286 3.66142 11.1122 4.05695 10.6927 4.31369C10.2731 4.57042 9.7769 4.67215 9.29017 4.60122C8.80343 4.53028 8.3569 4.29116 8.02808 3.92536L6.26803 4.88538L4.29876 6.01059C4.57407 6.49517 4.64628 7.06907 4.49957 7.60674L8.02808 9.53132C8.37329 9.14778 8.84734 8.90437 9.3602 8.84734C9.87306 8.7903 10.389 8.92361 10.8101 9.22194C11.2311 9.52027 11.5279 9.96285 11.6441 10.4656C11.7603 10.9684 11.6879 11.4963 11.4404 11.9492C11.193 12.402 10.7879 12.7482 10.3021 12.922C9.81619 13.0958 9.28341 13.0852 8.80489 12.892C8.32638 12.6989 7.93547 12.3367 7.7064 11.8743C7.47733 11.4119 7.42605 10.8815 7.56231 10.3838L4.03381 8.45988C3.7649 8.75898 3.41593 8.97479 3.02821 9.08177C2.64049 9.18875 2.23023 9.18243 1.84599 9.06355C1.46175 8.94468 1.1196 8.71822 0.860026 8.41098C0.600454 8.10374 0.434325 7.72857 0.381295 7.32987C0.328265 6.93117 0.390554 6.52562 0.560792 6.16122C0.731029 5.79681 1.00209 5.48879 1.3419 5.27361C1.68171 5.05843 2.07605 4.94509 2.47826 4.94701C2.88047 4.94892 3.27371 5.06601 3.61145 5.28442L5.7945 4.03678L7.56231 3.07222C7.51317 2.89149 7.48834 2.70501 7.48847 2.51772ZM9.59378 1.38409C9.44491 1.38409 9.2975 1.41341 9.15996 1.47038C9.02242 1.52735 8.89745 1.61085 8.79218 1.71612C8.68692 1.82139 8.60341 1.94636 8.54644 2.0839C8.48947 2.22143 8.46015 2.36885 8.46015 2.51772C8.46015 2.66659 8.48947 2.814 8.54644 2.95154C8.60341 3.08908 8.68692 3.21405 8.79218 3.31931C8.89745 3.42458 9.02242 3.50808 9.15996 3.56505C9.2975 3.62203 9.44491 3.65135 9.59378 3.65135C9.89444 3.65135 10.1828 3.53191 10.3954 3.31931C10.608 3.10672 10.7274 2.81837 10.7274 2.51772C10.7274 2.21706 10.608 1.92872 10.3954 1.71612C10.1828 1.50352 9.89444 1.38409 9.59378 1.38409ZM2.46811 5.91861C2.16745 5.91861 1.87911 6.03804 1.66651 6.25064C1.45391 6.46324 1.33448 6.75158 1.33448 7.05224C1.33448 7.35289 1.45391 7.64124 1.66651 7.85383C1.87911 8.06643 2.16745 8.18587 2.46811 8.18587C2.76876 8.18587 3.05711 8.06643 3.2697 7.85383C3.4823 7.64124 3.60174 7.35289 3.60174 7.05224C3.60174 6.75158 3.4823 6.46324 3.2697 6.25064C3.05711 6.03804 2.76876 5.91861 2.46811 5.91861ZM8.46015 10.939C8.46015 10.6383 8.57959 10.35 8.79218 10.1374C9.00478 9.92477 9.29312 9.80534 9.59378 9.80534C9.89444 9.80534 10.1828 9.92477 10.3954 10.1374C10.608 10.35 10.7274 10.6383 10.7274 10.939C10.7274 11.2396 10.608 11.528 10.3954 11.7406C10.1828 11.9532 9.89444 12.0726 9.59378 12.0726C9.29312 12.0726 9.00478 11.9532 8.79218 11.7406C8.57959 11.528 8.46015 11.2396 8.46015 10.939Z" fill="#F1F0FA"/>
</svg>
