<svg width="31" height="31" viewBox="0 0 31 31" fill="none" xmlns="http://www.w3.org/2000/svg">
<path d="M10.3333 23.25H12.2708V20.6667H14.8542V18.7292H12.2708V16.1458H10.3333V18.7292H7.75V20.6667H10.3333V23.25ZM16.7917 22.2813H23.25V20.3438H16.7917V22.2813ZM16.7917 19.0521H23.25V17.1146H16.7917V19.0521ZM18.2125 14.1438L20.0208 12.3354L21.8292 14.1438L23.1854 12.7875L21.3771 10.9146L23.1854 9.10625L21.8292 7.75L20.0208 9.55834L18.2125 7.75L16.8563 9.10625L18.6646 10.9146L16.8563 12.7875L18.2125 14.1438ZM8.07292 11.8833H14.5313V9.94584H8.07292V11.8833ZM6.45834 27.125C5.74792 27.125 5.13954 26.8718 4.63321 26.3655C4.12688 25.8592 3.87414 25.2512 3.875 24.5417V6.45834C3.875 5.74792 4.12817 5.13954 4.6345 4.63321C5.14084 4.12688 5.74878 3.87414 6.45834 3.875H24.5417C25.2521 3.875 25.8605 4.12817 26.3668 4.6345C26.8731 5.14084 27.1259 5.74878 27.125 6.45834V24.5417C27.125 25.2521 26.8718 25.8605 26.3655 26.3668C25.8592 26.8731 25.2512 27.1259 24.5417 27.125H6.45834Z" fill="url(#paint0_linear_18_1601)"/>
<defs>
<linearGradient id="paint0_linear_18_1601" x1="3.875" y1="3.76736" x2="18.0406" y2="31.6351" gradientUnits="userSpaceOnUse">
<stop stop-color="#FFC907"/>
<stop offset="1" stop-color="#B5C327"/>
</linearGradient>
</defs>
</svg>
